<svg
  width="100%"
  height="100%"
  viewBox="0 0 401 401"
  version="1.1"
  xmlns="http://www.w3.org/2000/svg"
  xmlns:xlink="http://www.w3.org/1999/xlink"
  xml:space="preserve"
  xmlns:serif="http://www.serif.com/"
  style="fill-rule: evenodd; clip-rule: evenodd; stroke-linejoin: round; stroke-miterlimit: 2"
>
  <g transform="matrix(7.12289,0.543899,-0.543899,7.12289,-4887.56,-1060.49)">
    <path
      d="M732.64,127.358C737.384,127.229 742.158,124.731 743.368,120.393C744.578,116.055 743.665,111.926 737.977,109.842C732.289,107.757 729.523,104.974 724.945,103.517C721.954,102.565 718.779,103.508 715.604,105.593C707.053,111.209 700.244,127.409 705.034,141.571C705.102,141.765 705.029,141.979 704.857,142.092C704.686,142.204 704.459,142.184 704.309,142.044C698.919,136.94 695.554,129.718 695.554,121.716C695.554,106.264 708.099,93.719 723.551,93.719C739.002,93.719 751.547,106.264 751.547,121.716C751.547,128.205 749.335,134.181 745.623,138.931C742.768,142.35 738.929,144.066 735.631,144.259C733.24,144.399 730.832,143.627 729.111,142.361C726.654,140.551 725.549,138.353 725.037,135.844C724.909,135.221 724.825,133.502 725.062,132.289C725.238,131.385 725.727,129.627 726.576,128.81C725.481,128.435 724.042,127.545 723.575,127.101C723.461,126.992 723.461,126.807 723.546,126.674C723.63,126.54 723.793,126.478 723.945,126.52C724.88,126.763 726.013,126.986 727.198,127.093C728.756,127.233 730.694,127.41 732.64,127.358ZM721.316,105.751C722.813,105.518 724.225,106.703 724.582,108.395C725.058,110.649 724.402,113.065 721.658,113.329C719.314,113.555 718.422,111.242 718.468,109.796C718.513,108.35 719.525,106.03 721.316,105.751Z"
    />
  </g>
</svg>
